<?xml version="1.0" encoding="utf-8" ?>
<svg xmlns="http://www.w3.org/2000/svg" xmlns:xlink="http://www.w3.org/1999/xlink" width="512" height="512">
	<defs>
		<linearGradient id="gradient_0" gradientUnits="userSpaceOnUse" x1="48.4235" y1="240.005" x2="721.36102" y2="521.58197">
			<stop offset="0" stop-color="#C3A798"/>
			<stop offset="1" stop-color="#D9D4CE"/>
		</linearGradient>
	</defs>
	<path fill="url(#gradient_0)" transform="scale(0.666667 0.666667)" d="M747.145 428.259L746.793 433.201C746.525 437.935 745.267 442.314 744.257 446.919L739.097 469.125C734.5 487.513 729.092 506.029 721.603 523.471C715.677 537.272 708.386 550.116 700.498 562.875C680.155 595.777 655.73 625.875 626.793 651.637C605.409 670.676 582.487 688.052 557.213 701.636C537.154 712.417 516.531 719.911 494.663 726.12C483.04 729.421 471.252 732.605 459.382 734.865C429.341 740.584 397.648 742.421 367.126 740.567C329.489 738.28 292.734 732.085 257.156 719.307C238.97 712.776 221.603 704.534 204.678 695.246C192.918 688.793 181.302 681.935 170.322 674.216C147.995 658.52 127.945 639.928 109.871 619.518C85.1641 591.617 63.7459 559.578 48.4186 525.591C44.2028 516.243 40.6795 506.612 37.3688 496.913C21.9402 451.716 15.1588 404.867 18.1449 357.151C23.0269 279.14 58.4398 203.175 108.919 144.294C118.776 132.797 129 121.642 140.393 111.633C159.075 95.2196 179.721 80.3089 201.598 68.4553C220.426 58.2534 240.687 50.6805 260.905 43.7412C280.508 37.0133 300.398 30.8086 320.711 26.5925C349.161 20.6876 377.663 18.7127 406.652 20.6286C454.149 23.7677 502.696 35.3219 545.444 56.5032C559.678 63.556 573.791 71.6207 586.956 80.5186L600.68 90.4526C607.731 95.5382 615.172 100.439 621.773 106.097C634.932 117.374 646.867 129.89 658.26 142.925C681.924 169.996 702.84 201.117 717.411 234.045L726.097 256.665L737.763 293.172C741.977 308.819 745.836 324.143 748.121 340.217C749.623 350.785 750.208 361.273 750.91 371.898C751.513 372.84 751.91 373.666 752.01 374.798C752.31 378.175 751.706 382.084 751.53 385.488L750.277 405.439C749.854 411.94 749.466 418.694 748.042 425.062L747.145 428.259ZM194.748 537.45L219.847 550.185C221.22 550.843 224.089 551.915 225.056 553.052C225.845 553.98 226.484 556.679 226.916 557.907C230.314 567.551 233.91 577.282 238.719 586.328C249.835 607.239 267.043 622.607 288.298 632.832C321.361 648.738 358.801 653.571 395.144 653.028C420.938 652.643 447.809 649.285 472.21 640.612L480.459 637.416C480.981 637.203 482.402 636.339 482.898 636.361C484.681 636.412 487.598 634.716 489.252 633.918C499.481 628.985 509.577 623.032 518.008 615.362C525.159 608.856 531.618 601.893 536.944 593.785C544.591 582.142 549.445 568.629 553.846 555.493L564.663 522.363L578.933 480.26L583.135 467.787C590.55 442.034 595.26 415.247 598.873 388.723L605.262 321.606C603.732 318.976 605.503 315.601 604.875 312.938C604.662 312.036 604.547 311.437 604.5 310.5L604.212 310.354L603.566 310.312L603.566 309C602.751 308.455 602.789 307.883 602.622 306.938C602.497 306.234 602.445 305.927 602.018 305.335L605.387 296.98L606.277 270.734C605.624 260.11 602.937 248.929 598.467 239.25C591.475 224.109 579.1 209.907 566.917 198.693L552.218 186.39L551.935 186.133L551.461 185.867C548.436 184.144 545.576 181.912 542.625 180.035C536.301 176.011 529.779 172.189 523.008 168.961C455.565 136.813 377.485 130.795 305.504 149.887C293.591 153.047 281.947 157.137 270.497 161.675C234.399 175.979 198.258 197.717 178.282 232.179C174.177 239.26 170.563 246.888 168.293 254.776C163.649 270.921 164.352 287.788 168.691 303.89C169.603 307.274 170.749 310.67 172.082 313.912C173.186 316.598 174.536 319.283 175.161 322.125L175.271 322.61C175.761 324.958 175.703 327.55 175.765 329.949L175.979 343.007C157.78 337.686 140.367 335.146 123.041 344.682C106.367 353.859 94.5676 371.98 89.4297 389.974C83.1796 411.863 88.9152 434.822 99.753 454.231C105.464 464.458 113.153 473.541 121.245 481.944C135.122 496.351 150.59 508.866 167.347 519.787L182.625 529.486C186.758 532.017 190.963 534.393 194.748 537.45ZM551.935 186.133L552.218 186.39L566.917 198.693C579.1 209.907 591.475 224.109 598.467 239.25C602.937 248.929 605.624 260.11 606.277 270.734L605.387 296.98L602.018 305.335C602.445 305.927 602.497 306.234 602.622 306.938C602.789 307.883 602.751 308.455 603.566 309L603.566 310.312L604.212 310.354L604.5 310.5C604.547 311.437 604.662 312.036 604.875 312.938C605.503 315.601 603.732 318.976 605.262 321.606L598.873 388.723C595.26 415.247 590.55 442.034 583.135 467.787L578.933 480.26L564.663 522.363L553.846 555.493C549.445 568.629 544.591 582.142 536.944 593.785C531.618 601.893 525.159 608.856 518.008 615.362C509.577 623.032 499.481 628.985 489.252 633.918C487.598 634.716 484.681 636.412 482.898 636.361C482.402 636.339 480.981 637.203 480.459 637.416L472.21 640.612C447.809 649.285 420.938 652.643 395.144 653.028C358.801 653.571 321.361 648.738 288.298 632.832C267.043 622.607 249.835 607.239 238.719 586.328C233.91 577.282 230.314 567.551 226.916 557.907C226.484 556.679 225.845 553.98 225.056 553.052C224.089 551.915 221.22 550.843 219.847 550.185C219.831 550.481 219.668 551.598 219.763 551.805C220.455 553.305 221.171 553.163 220.254 554.974L220.626 555.254C222.18 556.65 222.688 558.654 222.843 560.656C222.902 561.408 222.85 562.564 223.181 563.224C223.401 563.663 223.835 563.967 224.067 564.4L224.443 565.683L224.649 566.038C224.892 566.534 224.832 566.907 224.84 567.447C224.858 568.576 225.205 568.686 225.565 569.65L225.723 570.692C225.867 571.552 226.376 572.284 226.633 573.109C227.145 574.756 227.172 576.402 227.919 578.041C228.177 578.607 228.225 578.828 228.316 579.409C228.451 580.274 228.607 580.194 228.942 580.9C229.238 581.524 229.296 582.435 229.515 583.113C230.245 585.381 231.224 587.337 231.261 589.757C231.272 590.458 231.245 590.089 231.442 590.854C231.653 591.677 231.365 592.125 231.321 592.918C231.27 593.83 231.656 594.818 231.921 595.683C231.054 596.315 229.913 596.072 228.894 596.022C228.209 595.627 228.321 595.613 227.438 595.624L227.352 594.537L226.767 594.739L226.716 595.246C226.615 596.015 226.678 595.725 226.305 596.481C227.234 598.219 228.827 599.93 230.065 601.471C234.429 606.907 239.338 611.976 244.565 616.583C253.429 624.395 263.836 630.789 274.383 636.064C298.058 647.905 323.956 654.525 350.001 658.633C374 662.418 397.697 664.166 421.976 662.637C436.753 661.706 451.557 659.498 466.078 656.659C505.885 648.877 544.21 634.714 575.438 608.155C597.646 589.266 616.877 566.822 637.242 546.023L697.699 483.122L726.399 452.411L740.168 436.288C742.373 433.559 744.354 430.611 746.672 427.985L747.145 428.259L748.042 425.062C749.466 418.694 749.854 411.94 750.277 405.439L751.53 385.488C751.706 382.084 752.31 378.175 752.01 374.798C751.91 373.666 751.513 372.84 750.91 371.898L731.336 352.986L703.832 326.256L620.903 245.724L594.854 220.395C587.63 213.347 580.505 206.203 572.757 199.721C567.841 195.608 563.021 192.114 557.438 188.988C555.605 187.962 553.928 186.844 551.935 186.133Z"/>
	<path fill="#7B5F5D" transform="scale(0.666667 0.666667)" d="M194.748 537.45L219.847 550.185C219.831 550.481 219.668 551.598 219.763 551.805C220.455 553.305 221.171 553.163 220.254 554.974L220.626 555.254C222.18 556.65 222.688 558.654 222.843 560.656C222.902 561.408 222.85 562.564 223.181 563.224C223.401 563.663 223.835 563.967 224.067 564.4L224.443 565.683L224.649 566.038C224.892 566.534 224.832 566.907 224.84 567.447C224.858 568.576 225.205 568.686 225.565 569.65L225.723 570.692C225.867 571.552 226.376 572.284 226.633 573.109C227.145 574.756 227.172 576.402 227.919 578.041C228.177 578.607 228.225 578.828 228.316 579.409C228.451 580.274 228.607 580.194 228.942 580.9C229.238 581.524 229.296 582.435 229.515 583.113C230.245 585.381 231.224 587.337 231.261 589.757C231.272 590.458 231.245 590.089 231.442 590.854C231.653 591.677 231.365 592.125 231.321 592.918C231.27 593.83 231.656 594.818 231.921 595.683C231.054 596.315 229.913 596.072 228.894 596.022C228.209 595.627 228.321 595.613 227.438 595.624L227.352 594.537L226.767 594.739L226.716 595.246C226.615 596.015 226.678 595.725 226.305 596.481C223.147 593.095 220.478 588.408 218.075 584.449C211.518 573.649 205.917 562.51 200.442 551.133C198.553 547.207 194.982 541.76 194.748 537.45Z"/>
	<defs>
		<linearGradient id="gradient_1" gradientUnits="userSpaceOnUse" x1="205.48599" y1="478.61801" x2="752.151" y2="380.33401">
			<stop offset="0" stop-color="#7E6362"/>
			<stop offset="1" stop-color="#A59F94"/>
		</linearGradient>
	</defs>
	<path fill="url(#gradient_1)" transform="scale(0.666667 0.666667)" d="M551.935 186.133C553.928 186.844 555.605 187.962 557.438 188.988C563.021 192.114 567.841 195.608 572.757 199.721C580.505 206.203 587.63 213.347 594.854 220.395L620.903 245.724L703.832 326.256L731.336 352.986L750.91 371.898C751.513 372.84 751.91 373.666 752.01 374.798C752.31 378.175 751.706 382.084 751.53 385.488L750.277 405.439C749.854 411.94 749.466 418.694 748.042 425.062L747.145 428.259L746.672 427.985C744.354 430.611 742.373 433.559 740.168 436.288L726.399 452.411L697.699 483.122L637.242 546.023C616.877 566.822 597.646 589.266 575.438 608.155C544.21 634.714 505.885 648.877 466.078 656.659C451.557 659.498 436.753 661.706 421.976 662.637C397.697 664.166 374 662.418 350.001 658.633C323.956 654.525 298.058 647.905 274.383 636.064C263.836 630.789 253.429 624.395 244.565 616.583C239.338 611.976 234.429 606.907 230.065 601.471C228.827 599.93 227.234 598.219 226.305 596.481C226.678 595.725 226.615 596.015 226.716 595.246L226.767 594.739L227.352 594.537L227.438 595.624C228.321 595.613 228.209 595.627 228.894 596.022C229.913 596.072 231.054 596.315 231.921 595.683C231.656 594.818 231.27 593.83 231.321 592.918C231.365 592.125 231.653 591.677 231.442 590.854C231.245 590.089 231.272 590.458 231.261 589.757C231.224 587.337 230.245 585.381 229.515 583.113C229.296 582.435 229.238 581.524 228.942 580.9C228.607 580.194 228.451 580.274 228.316 579.409C228.225 578.828 228.177 578.607 227.919 578.041C227.172 576.402 227.145 574.756 226.633 573.109C226.376 572.284 225.867 571.552 225.723 570.692L225.565 569.65C225.205 568.686 224.858 568.576 224.84 567.447C224.832 566.907 224.892 566.534 224.649 566.038L224.443 565.683L224.067 564.4C223.835 563.967 223.401 563.663 223.181 563.224C222.85 562.564 222.902 561.408 222.843 560.656C222.688 558.654 222.18 556.65 220.626 555.254L220.254 554.974C221.171 553.163 220.455 553.305 219.763 551.805C219.668 551.598 219.831 550.481 219.847 550.185C221.22 550.843 224.089 551.915 225.056 553.052C225.845 553.98 226.484 556.679 226.916 557.907C230.314 567.551 233.91 577.282 238.719 586.328C249.835 607.239 267.043 622.607 288.298 632.832C321.361 648.738 358.801 653.571 395.144 653.028C420.938 652.643 447.809 649.285 472.21 640.612L480.459 637.416C480.981 637.203 482.402 636.339 482.898 636.361C484.681 636.412 487.598 634.716 489.252 633.918C499.481 628.985 509.577 623.032 518.008 615.362C525.159 608.856 531.618 601.893 536.944 593.785C544.591 582.142 549.445 568.629 553.846 555.493L564.663 522.363L578.933 480.26L583.135 467.787C590.55 442.034 595.26 415.247 598.873 388.723L605.262 321.606C603.732 318.976 605.503 315.601 604.875 312.938C604.662 312.036 604.547 311.437 604.5 310.5L604.212 310.354L603.566 310.312L603.566 309C602.751 308.455 602.789 307.883 602.622 306.938C602.497 306.234 602.445 305.927 602.018 305.335L605.387 296.98L606.277 270.734C605.624 260.11 602.937 248.929 598.467 239.25C591.475 224.109 579.1 209.907 566.917 198.693L552.218 186.39L551.935 186.133ZM605.387 296.98L602.018 305.335C602.445 305.927 602.497 306.234 602.622 306.938C602.789 307.883 602.751 308.455 603.566 309L603.566 310.312L604.212 310.354L604.5 310.5C604.547 311.437 604.662 312.036 604.875 312.938C605.503 315.601 603.732 318.976 605.262 321.606L605.354 321.182C605.771 318.747 605.588 315.962 605.67 313.479C605.786 309.941 606.99 299.437 605.387 296.98Z"/>
	<path fill="#D8C9C0" fill-opacity="0.98823529" transform="scale(0.666667 0.666667)" d="M605.387 296.98C606.99 299.437 605.786 309.941 605.67 313.479C605.588 315.962 605.771 318.747 605.354 321.182L605.262 321.606C603.732 318.976 605.503 315.601 604.875 312.938C604.662 312.036 604.547 311.437 604.5 310.5L604.212 310.354L603.566 310.312L603.566 309C602.751 308.455 602.789 307.883 602.622 306.938C602.497 306.234 602.445 305.927 602.018 305.335L605.387 296.98Z"/>
	<path fill="#D8975C" transform="scale(0.666667 0.666667)" d="M211.485 237.679C213.095 237.444 213.404 236.705 214.406 235.463C215.64 233.935 216.732 232.355 218.737 231.923L219.674 232.346L220.22 232.045L221.438 232.309L222.057 232.154C222.753 231.997 223.702 232.812 224.573 232.927C225.294 233.023 225.879 233.827 226.394 234.26C226.892 234.679 227.262 234.73 227.87 234.88L228.219 235.325C228.823 236.064 228.551 235.745 229.241 236.389C229.82 236.929 230.054 237.394 230.513 238.009C230.857 238.47 231.269 238.837 231.694 239.214C232.137 239.606 232.388 240.055 232.694 240.553L233.521 240.687C234.036 242.027 234.022 242.12 235.311 242.928L234.119 245.069L234.281 245.531C231.303 248.509 227.431 251.686 225.094 255.094L224.064 256.031L223.203 256.967L224.18 257.002C221.422 260.624 218.613 264.289 216.482 268.326C209.026 283.179 205.491 298.418 204.468 314.936C204.306 317.56 204.326 320.249 204.459 322.875C204.526 324.198 204.896 325.742 204.679 327.038C202.353 324.358 200.664 320.961 199.069 317.812C194.421 308.632 191.168 299.162 191.056 288.75C190.903 274.51 196.443 259.767 203.949 247.875C206.163 244.366 208.58 240.66 211.485 237.679Z"/>
	<path fill="#190001" transform="scale(0.666667 0.666667)" d="M216.482 268.326L217.23 268.486C218.035 269.594 218.452 270.557 218.658 271.916C219.152 275.181 218.828 278.789 219.028 282.106C219.537 290.523 220.374 298.955 222.085 307.221C225.148 322.027 230.553 336.37 239.279 348.794C249.307 363.072 261.959 373.763 276.848 382.703C281.572 385.54 286.839 387.718 291.253 391.009C292.932 392.261 293.373 393.108 293.646 395.149C266.034 384.068 239.656 368.778 219.43 346.688C213.77 340.506 208.713 334.441 204.679 327.038C204.896 325.742 204.526 324.198 204.459 322.875C204.326 320.249 204.306 317.56 204.468 314.936C205.491 298.418 209.026 283.179 216.482 268.326Z"/>
	<path fill="#D7CDC4" transform="scale(0.666667 0.666667)" d="M205.222 482.386L215.867 507.413C212.422 506.383 208.947 504.593 205.552 503.3C193.625 498.756 181.969 494.443 170.754 488.235C159.707 482.12 149.39 474.739 139.889 466.438C127.724 455.811 116.261 443.165 111.792 427.283C108.24 414.664 109.671 399.64 116.164 388.167C121.385 378.942 130.18 372.442 140.382 369.748C153.099 366.39 168.456 370.117 179.689 376.573L181.323 388.865L205.222 482.386Z"/>
	<path fill="#D5BDB0" transform="scale(0.666667 0.666667)" d="M205.222 482.386C202.207 480.445 199.469 478.025 196.493 475.987C190.484 471.874 184.37 468.042 178.687 463.452C170.244 456.632 162.634 448.879 156.237 440.104C148.782 429.876 140.957 415.291 143.113 402.165L143.901 398.273C145.48 393.042 149.545 388.34 154.355 385.796C160.923 382.324 168.151 383.369 174.786 386.112C176.765 386.93 178.673 388.076 180.72 388.692L181.323 388.865L205.222 482.386Z"/>
	<defs>
		<linearGradient id="gradient_2" gradientUnits="userSpaceOnUse" x1="334.73199" y1="339.58801" x2="486.88699" y2="174.179">
			<stop offset="0" stop-color="#E0A165"/>
			<stop offset="1" stop-color="#EACBAA"/>
		</linearGradient>
	</defs>
	<path fill="url(#gradient_2)" transform="scale(0.666667 0.666667)" d="M211.485 237.679C216.177 231.3 222.566 225.615 228.77 220.748C243.849 208.921 260.74 200.826 278.625 194.199C298.864 186.699 319.491 181.574 340.822 178.324C354.602 176.224 368.692 174.88 382.641 174.801C416.709 174.606 450.37 181.09 482.359 192.602C501.937 199.648 520.671 208.097 537.473 220.547C555.474 233.886 572.264 253.586 575.649 276.281C578.11 292.781 575.602 312.33 565.488 325.912L564.888 326.698C564.48 325.283 564.863 323.546 565.052 322.1C565.393 319.489 565.77 316.838 565.795 314.201C565.846 308.977 565.12 303.218 564.1 298.093C558.363 269.287 538.257 245.485 514.2 229.688C484.355 210.089 446.611 200.881 411.465 197.477L399.645 196.458C397.388 196.327 395.088 196.06 392.858 196.524L382.772 196.442C332.859 196.749 277.842 208.944 239.027 242.061C235.465 245.1 232.197 248.686 228.905 252.021C228.185 252.751 224.677 256.898 224.18 257.002L223.203 256.967L224.064 256.031L225.094 255.094C227.431 251.686 231.303 248.509 234.281 245.531L234.119 245.069L235.311 242.928C234.022 242.12 234.036 242.027 233.521 240.687L232.694 240.553C232.388 240.055 232.137 239.606 231.694 239.214C231.269 238.837 230.857 238.47 230.513 238.009C230.054 237.394 229.82 236.929 229.241 236.389C228.551 235.745 228.823 236.064 228.219 235.325L227.87 234.88C227.262 234.73 226.892 234.679 226.394 234.26C225.879 233.827 225.294 233.023 224.573 232.927C223.702 232.812 222.753 231.997 222.057 232.154L221.438 232.309L220.22 232.045L219.674 232.346L218.737 231.923C216.732 232.355 215.64 233.935 214.406 235.463C213.404 236.705 213.095 237.444 211.485 237.679Z"/>
	<path fill="#D7CDC4" transform="scale(0.666667 0.666667)" d="M602.018 305.335C602.445 305.927 602.497 306.234 602.622 306.938C602.789 307.883 602.751 308.455 603.566 309L603.566 310.312L604.212 310.354L604.5 310.5C604.547 311.437 604.662 312.036 604.875 312.938C605.503 315.601 603.732 318.976 605.262 321.606L598.873 388.723C595.26 415.247 590.55 442.034 583.135 467.787L578.933 480.26L564.663 522.363L553.846 555.493C549.445 568.629 544.591 582.142 536.944 593.785C531.618 601.893 525.159 608.856 518.008 615.362C509.577 623.032 499.481 628.985 489.252 633.918C487.598 634.716 484.681 636.412 482.898 636.361L490.375 595.125L489.75 594.371C488.343 594.165 487.994 594.303 486.665 594.814C481.527 596.789 476.571 599.645 471.49 601.837C465.47 604.433 458.595 606.449 452.24 608.083C427.999 614.314 403.806 617.564 378.75 615.981C378.083 610.374 378.73 604.191 378.739 598.51L378.729 560.503L379.103 428.342C388.596 428.52 397.909 428.735 407.403 428.17C431.999 426.706 456.374 421.64 479.545 413.285C488.856 409.928 497.854 405.746 506.709 401.343C512.649 398.39 518.635 395.48 524.338 392.082C551.712 375.77 576.584 352.509 592.795 324.938C595.088 321.037 597.363 316.851 599.125 312.683C600.157 310.243 600.888 307.744 602.018 305.335Z"/>
	<defs>
		<linearGradient id="gradient_3" gradientUnits="userSpaceOnUse" x1="295.43201" y1="403.509" x2="474.798" y2="210.024">
			<stop offset="0" stop-color="#412519"/>
			<stop offset="1" stop-color="#834E33"/>
		</linearGradient>
	</defs>
	<path fill="url(#gradient_3)" transform="scale(0.666667 0.666667)" d="M392.858 196.524C395.088 196.06 397.388 196.327 399.645 196.458L411.465 197.477C446.611 200.881 484.355 210.089 514.2 229.688C538.257 245.485 558.363 269.287 564.1 298.093C565.12 303.218 565.846 308.977 565.795 314.201C565.77 316.838 565.393 319.489 565.052 322.1C564.863 323.546 564.48 325.283 564.888 326.698C561.13 333.93 556.154 340.068 550.631 346.009C548.28 348.538 545.93 351.242 543.074 353.214C528.092 368.183 510.635 378.829 491.376 387.393C457.725 402.355 421.598 409.352 384.827 409.339C361.079 409.331 337.844 407.374 314.709 401.665C307.51 399.888 300.664 397.511 293.646 395.149C293.373 393.108 292.932 392.261 291.253 391.009C286.839 387.718 281.572 385.54 276.848 382.703C261.959 373.763 249.307 363.072 239.279 348.794C230.553 336.37 225.148 322.027 222.085 307.221C220.374 298.955 219.537 290.523 219.028 282.106C218.828 278.789 219.152 275.181 218.658 271.916C218.452 270.557 218.035 269.594 217.23 268.486L216.482 268.326C218.613 264.289 221.422 260.624 224.18 257.002C224.677 256.898 228.185 252.751 228.905 252.021C232.197 248.686 235.465 245.1 239.027 242.061C277.842 208.944 332.859 196.749 382.772 196.442L392.858 196.524ZM224.18 257.002C221.422 260.624 218.613 264.289 216.482 268.326L217.23 268.486C217.798 268.518 218.056 268.436 218.527 268.77C219.188 269.238 218.825 268.987 219.592 269.406C220.878 270.107 221.759 271.27 222.562 272.441C223.532 273.855 224.93 274.976 225.921 276.395C226.821 277.685 228.043 278.625 228.938 279.941L235.774 288.938C236.394 289.686 236.068 289.257 236.49 289.938C238.242 292.769 240.901 295.384 242.88 298.122L248.222 304.877L251.123 308.61C251.819 309.588 252.62 310.445 253.312 311.441C259.274 320.018 266.811 327.235 274.103 334.517C276.461 336.872 279.064 340.09 281.812 341.855C283.077 342.666 285.208 344.48 286.125 345.586L287.895 347.077L292.496 350.631L293.318 351.329L295.722 353.199C296.217 353.607 296.65 353.856 297.188 354.191L303.926 358.717L308.215 361.313C312.034 363.795 316.75 365.891 320.998 367.535L322.312 368.109C326.217 369.799 330.671 371.128 334.875 371.83L339.28 372.525C339.794 372.601 340.213 372.613 340.723 372.627C341.582 372.65 341.209 372.57 341.806 372.799C342.751 373.162 359.132 373.321 359.475 373.149L359.773 372.96L360.464 372.749C363.652 375.983 366.845 379.387 369.717 382.901C372.459 386.255 374.493 389.402 377.729 392.394C377.504 384.667 376.552 377.574 374.973 370.001C373.363 364.464 370.601 359.401 367.762 354.423C367.728 352.333 366.827 351.682 365.545 350.142L364.309 348.018C365.673 347.513 367.367 347.755 368.671 348.356L369.105 348.559C369.876 348.895 370.883 349.073 371.403 349.737C372.187 350.739 372.889 351.389 373.521 352.517C374.317 353.938 375.502 355.162 376.212 356.623L377.188 356.897C378.696 360.142 379.909 362.983 380.355 366.558C381.145 364.437 381.158 361.952 381.375 359.707C381.517 358.955 381.608 358.157 382.007 357.493C382.81 356.156 383.225 355.026 384.342 353.872L384.882 352.897C385.593 350.176 387.289 347.858 388.891 345.591C392.295 340.773 396.06 336.404 400.002 332.023C400.505 331.788 401.278 330.836 401.705 330.413L406.197 325.8C405.673 324.693 406.08 323.661 406.259 322.465L406.842 320.108C406.313 320.679 406.508 320.406 406.104 321.102L405.735 321.75C404.762 323.427 404.774 322.519 403.125 322.948L402.663 322.312C402.647 320.365 402.568 318.768 403.537 317.004L404.085 315.984L404.339 315.469C405.008 314.132 405.423 312.3 406.688 311.441C407.214 311.341 407.676 311.236 408.188 311.066L408.278 305.523C408.676 302.382 409.534 300.463 410.812 297.627C411.52 296.057 411.773 294.413 412.888 293.042L416.681 288.405C418.807 285.649 419.855 281.945 420.435 278.545C424.393 255.333 414.586 235.984 399.723 218.755C394.153 212.299 388.059 206.592 383.091 199.592L382.772 196.442C332.859 196.749 277.842 208.944 239.027 242.061C235.465 245.1 232.197 248.686 228.905 252.021C228.185 252.751 224.677 256.898 224.18 257.002ZM417.11 289.255L416.681 288.405L412.888 293.042C411.773 294.413 411.52 296.057 410.812 297.627C409.534 300.463 408.676 302.382 408.278 305.523L408.188 311.066C407.676 311.236 407.214 311.341 406.688 311.441C405.423 312.3 405.008 314.132 404.339 315.469L404.085 315.984L403.537 317.004C402.568 318.768 402.647 320.365 402.663 322.312L403.125 322.948C404.774 322.519 404.762 323.427 405.735 321.75L406.104 321.102C406.508 320.406 406.313 320.679 406.842 320.108L406.259 322.465C406.08 323.661 405.673 324.693 406.197 325.8L401.705 330.413C401.278 330.836 400.505 331.788 400.002 332.023C396.06 336.404 392.295 340.773 388.891 345.591C387.289 347.858 385.593 350.176 384.882 352.897L384.342 353.872L388.253 364.039C388.44 364.594 388.347 364.349 388.635 364.947C388.221 368.157 387.833 371.455 388.014 374.696C388.299 379.812 389.611 384.678 390.347 389.723L395.409 378.328L396.557 374.939C401.177 363.141 411.56 353.578 422.91 348.256C428.522 345.625 434.488 343.798 440.174 341.334C450.575 336.828 461.24 331.233 469.687 323.576C476.313 317.569 481.615 310.493 486.949 303.368C493.817 294.193 500.274 285.057 505.055 274.592C506.803 270.765 508.054 266.801 509.605 262.901L509.42 261.849C506.041 262.282 502.59 264.92 499.465 266.245C496.814 267.369 493.488 267.988 490.653 268.446C482.236 269.808 473.659 269.247 465.182 269.829C448.607 270.965 428.693 276.816 417.11 289.255Z"/>
	<path fill="#7B5F5D" transform="scale(0.666667 0.666667)" d="M367.762 354.423C367.728 352.333 366.827 351.682 365.545 350.142L364.309 348.018C365.673 347.513 367.367 347.755 368.671 348.356L369.105 348.559C369.876 348.895 370.883 349.073 371.403 349.737C372.187 350.739 372.889 351.389 373.521 352.517C374.317 353.938 375.502 355.162 376.212 356.623L377.188 356.897C378.696 360.142 379.909 362.983 380.355 366.558C380.499 367.986 380.534 368.912 380.202 370.312C379.848 371.808 379.898 373.163 379.328 374.664C379.044 375.41 379.013 375.866 378.947 376.634C378.905 377.124 378.758 377.508 378.562 377.953C378.11 377.27 378.216 376.587 378.443 375.787L378.621 375.326C379.09 374.034 378.819 372.639 379.317 371.336L378.566 371.812C378.715 372.724 378.733 372.648 378.469 373.502C378.29 374.079 378.129 374.948 378 375.562L377.906 376.314L377.765 376.636C377.515 377.301 377.554 378.047 377.533 378.75L377.293 378.757C376.718 377.582 376.765 375.739 376.558 374.438L376.557 373.933C376.519 372.542 375.983 370.984 374.973 370.001C373.363 364.464 370.601 359.401 367.762 354.423Z"/>
	<path fill="#975F41" transform="scale(0.666667 0.666667)" d="M509.605 262.901C510.168 263.002 510.493 262.894 510.833 263.388C511.981 265.057 512.09 266.71 512.452 268.63C513.968 276.685 513.318 285.874 511.688 293.886C509.618 304.053 505.725 315.18 500.353 324.059C493.468 335.436 482.973 345.462 471.782 352.515C456.754 361.985 438.886 366.267 421.783 370.228C412.717 372.327 403.724 373.975 395.409 378.328L396.557 374.939C401.177 363.141 411.56 353.578 422.91 348.256C428.522 345.625 434.488 343.798 440.174 341.334C450.575 336.828 461.24 331.233 469.687 323.576C476.313 317.569 481.615 310.493 486.949 303.368C493.817 294.193 500.274 285.057 505.055 274.592C506.803 270.765 508.054 266.801 509.605 262.901Z"/>
	<defs>
		<linearGradient id="gradient_4" gradientUnits="userSpaceOnUse" x1="457.203" y1="298.548" x2="502.60699" y2="223.306">
			<stop offset="0" stop-color="#9E6545"/>
			<stop offset="1" stop-color="#B37C5B"/>
		</linearGradient>
	</defs>
	<path fill="url(#gradient_4)" transform="scale(0.666667 0.666667)" d="M392.858 196.524C395.088 196.06 397.388 196.327 399.645 196.458L411.465 197.477C446.611 200.881 484.355 210.089 514.2 229.688C538.257 245.485 558.363 269.287 564.1 298.093C565.12 303.218 565.846 308.977 565.795 314.201C565.77 316.838 565.393 319.489 565.052 322.1C564.863 323.546 564.48 325.283 564.888 326.698C561.13 333.93 556.154 340.068 550.631 346.009C548.28 348.538 545.93 351.242 543.074 353.214C543.151 349.718 546.132 344.878 547.492 341.576C552.32 329.852 554.316 316.252 552.394 303.715C551.343 296.853 549.015 290.023 546.161 283.708C543.003 276.721 539.153 269.932 533.955 264.254C527.14 256.808 518.194 251.256 509.28 246.657C496.682 240.158 483.51 235.22 469.96 231.107C460.879 228.351 451.432 226.642 442.544 223.277C437.134 221.23 432.48 217.869 427.629 214.797C423.46 212.157 419.269 209.871 414.86 207.666L401.448 201.267C399.149 200.182 396.35 199.123 394.343 197.56C393.855 197.18 393.382 196.854 392.858 196.524Z"/>
	<path fill="#D8C9C0" fill-opacity="0.90588236" transform="scale(0.666667 0.666667)" d="M451.141 302.41C455.809 299.709 460.941 298.439 465.562 295.41L465.904 295.688C459.01 300.505 452.657 305.588 444.842 308.806C445.155 307.32 445.137 307.036 446.25 305.92L447 306L447.656 305.531L448.312 305.25C448.598 303.994 449.837 304.394 450.551 303.606C450.85 303.277 450.944 302.809 451.141 302.41Z"/>
	<path fill="#D7CDC4" fill-opacity="0.53333336" transform="scale(0.666667 0.666667)" d="M408.278 305.523C408.676 302.382 409.534 300.463 410.812 297.627C411.52 296.057 411.773 294.413 412.888 293.042L416.681 288.405L417.11 289.255C414.756 292.544 413.42 295.061 412.637 299.036C412.322 300.634 411.345 301.997 410.962 303.574C409.724 308.668 409.391 315.553 406.842 320.108C406.313 320.679 406.508 320.406 406.104 321.102L405.735 321.75C404.762 323.427 404.774 322.519 403.125 322.948L402.663 322.312C402.647 320.365 402.568 318.768 403.537 317.004L404.085 315.984L404.339 315.469C405.008 314.132 405.423 312.3 406.688 311.441C407.214 311.341 407.676 311.236 408.188 311.066L408.278 305.523Z"/>
	<path fill="#D8975C" transform="scale(0.666667 0.666667)" d="M406.197 325.8C415.499 317.517 425.093 310.666 437.014 306.662C441.716 305.083 446.468 304.145 451.141 302.41C450.944 302.809 450.85 303.277 450.551 303.606C449.837 304.394 448.598 303.994 448.312 305.25L447.656 305.531L447 306L446.25 305.92C445.137 307.036 445.155 307.32 444.842 308.806L430.252 317.237C412.184 328.83 396.334 344.605 388.635 364.947C388.347 364.349 388.44 364.594 388.253 364.039L384.342 353.872L384.882 352.897C385.593 350.176 387.289 347.858 388.891 345.591C392.295 340.773 396.06 336.404 400.002 332.023C400.505 331.788 401.278 330.836 401.705 330.413L406.197 325.8Z"/>
	<path fill="#D8C9C0" transform="scale(0.666667 0.666667)" d="M306.401 302.293C304.256 300.849 295.619 295.737 294.723 293.933C294.408 293.297 294.539 293.312 294.723 292.688L295.512 293.062C299.602 294.905 303.393 297.357 307.215 299.696C306.586 300.67 306.421 301.085 306.401 302.293Z"/>
	<path fill="#D7CDC4" fill-opacity="0.15686275" transform="scale(0.666667 0.666667)" d="M379.066 338.293C379.788 339.668 380.37 340.748 380.2 342.359L379.764 342.21L379.641 342.644C379.062 344.267 378.412 345.085 376.875 345.762C375.832 345.664 375.413 345.718 374.627 344.953C373.926 344.27 373.508 343.148 373.688 342.192C374.063 340.189 376.204 339.549 377.812 338.7L378.562 339.379L379.066 338.293Z"/>
	<path fill="#D8C9C0" transform="scale(0.666667 0.666667)" d="M380.564 307.966C381.256 303.806 380.933 299.099 380.895 294.872C380.883 293.597 381.106 291.481 380.655 290.345C380.231 289.278 379.525 287.74 379.603 286.58C379.771 284.11 378.324 281.55 377.449 279.245C379.006 280.523 380.326 281.875 381.677 283.361C381.819 284.767 382.101 286.096 382.554 287.438L382.886 288.341C384.268 292.542 383.106 299.457 382.671 303.831L381.482 308.591L381.146 308.619L380.564 307.966Z"/>
	<path fill="#D8975C" transform="scale(0.666667 0.666667)" d="M307.215 299.696L328.261 308.653C332.597 310.546 337.628 312.816 341.238 315.933C341.067 316.085 340.458 316.641 340.313 316.691C340.004 316.798 339.679 316.53 339.362 316.451C337.685 316.037 335.665 315.339 334.01 315.089C332.8 314.906 331.385 315.432 330.237 315.155C328.059 314.628 327.504 312.626 324.782 312.559C324.003 312.531 321.851 311.048 321.017 310.587L306.401 302.293C306.421 301.085 306.586 300.67 307.215 299.696Z"/>
	<defs>
		<linearGradient id="gradient_5" gradientUnits="userSpaceOnUse" x1="393.082" y1="303.207" x2="381.54901" y2="328.685">
			<stop offset="0" stop-color="#D3C6BF" stop-opacity="0.61960787"/>
			<stop offset="1" stop-color="#CBB1A1"/>
		</linearGradient>
	</defs>
	<path fill="url(#gradient_5)" transform="scale(0.666667 0.666667)" d="M382.671 303.831L383.086 304.688C384.035 304.199 384.729 303.688 385.821 303.719C387.376 300.854 389.087 297.505 391.294 295.102C393.259 292.962 396.27 291.176 397.688 288.651L398.208 288.752C398.163 290.931 394.511 294.136 393.139 295.858C391.963 297.333 390.981 298.915 390.067 300.561L398.588 305.248C398.719 305.838 398.939 306.067 398.602 306.599C397.864 307.761 397.076 308.688 396.102 309.657L393.011 313.457C391.28 315.798 389.209 318.439 388.275 321.22C385.556 325.188 384.952 332.008 384.269 336.71L383.832 336.751C383.197 335.703 383.377 334.218 383.354 333.013C383.307 330.474 383.264 327.964 383.013 325.433C382.992 321.97 383.038 319.405 381.386 316.279L382.299 315.946C383.119 313.939 383.199 312.213 382.691 310.125C382.077 309.815 381.84 309.169 381.482 308.591L382.671 303.831Z"/>
	<defs>
		<linearGradient id="gradient_6" gradientUnits="userSpaceOnUse" x1="353.866" y1="319.98599" x2="347.70499" y2="342.94501">
			<stop offset="0" stop-color="#D69762"/>
			<stop offset="1" stop-color="#936952"/>
		</linearGradient>
	</defs>
	<path fill="url(#gradient_6)" transform="scale(0.666667 0.666667)" d="M324.782 312.559C327.504 312.626 328.059 314.628 330.237 315.155C331.385 315.432 332.8 314.906 334.01 315.089C335.665 315.339 337.685 316.037 339.362 316.451C339.679 316.53 340.004 316.798 340.313 316.691C340.458 316.641 341.067 316.085 341.238 315.933C353.73 323.374 362.032 334.958 370.274 346.541C372.646 349.875 375.476 353.173 377.188 356.897L376.212 356.623C375.502 355.162 374.317 353.938 373.521 352.517C372.889 351.389 372.187 350.739 371.403 349.737C370.883 349.073 369.876 348.895 369.105 348.559L368.671 348.356C367.367 347.755 365.673 347.513 364.309 348.018L365.545 350.142C366.827 351.682 367.728 352.333 367.762 354.423C364.49 350.347 361.874 345.738 358.517 341.677C349.327 330.561 336.801 320.448 324.782 312.559Z"/>
	<defs>
		<linearGradient id="gradient_7" gradientUnits="userSpaceOnUse" x1="385.54099" y1="331.81299" x2="397.64899" y2="334.54099">
			<stop offset="0" stop-color="#F2F1F0" stop-opacity="0"/>
			<stop offset="1" stop-color="#DED3D0" stop-opacity="0.27843139"/>
		</linearGradient>
	</defs>
	<path fill="url(#gradient_7)" transform="scale(0.666667 0.666667)" d="M398.588 305.248L399.82 305.455L400.132 306.291C402.781 307.311 405.382 307.142 408.078 307.785L408.278 305.523L408.188 311.066C407.676 311.236 407.214 311.341 406.688 311.441C405.423 312.3 405.008 314.132 404.339 315.469L404.085 315.984L403.537 317.004C402.568 318.768 402.647 320.365 402.663 322.312L403.125 322.948C404.774 322.519 404.762 323.427 405.735 321.75L406.104 321.102C406.508 320.406 406.313 320.679 406.842 320.108L406.259 322.465C406.08 323.661 405.673 324.693 406.197 325.8L401.705 330.413C401.278 330.836 400.505 331.788 400.002 332.023C396.06 336.404 392.295 340.773 388.891 345.591C387.289 347.858 385.593 350.176 384.882 352.897C384.183 347.627 383.909 342.015 384.269 336.71C384.952 332.008 385.556 325.188 388.275 321.22C389.209 318.439 391.28 315.798 393.011 313.457L396.102 309.657C397.076 308.688 397.864 307.761 398.602 306.599C398.939 306.067 398.719 305.838 398.588 305.248ZM398.588 305.248C398.719 305.838 398.939 306.067 398.602 306.599C397.864 307.761 397.076 308.688 396.102 309.657L393.011 313.457C391.28 315.798 389.209 318.439 388.275 321.22L388.868 321.358C389.77 319.748 390.655 318.06 391.781 316.594C391.97 319.268 390.176 320.378 389.25 322.688L388.969 323.344C388.544 324.829 388.022 326.161 388.219 327.672C389.173 326.073 389.257 324.153 390.375 322.757C391.219 322.848 390.851 322.713 391.5 323.105C392.417 322.93 392.297 322.91 392.906 322.311C393.46 322.928 393.714 323.018 393.844 323.862C394.653 323.909 394.966 324.054 395.684 323.676C396.468 323.263 396.801 323.495 397.592 323.35L398.539 322.95L399.06 322.883C399.428 324.447 399.114 324.965 398.682 326.468C398.352 327.612 398.147 330.061 398.712 331.11L398.923 331.406L399 331.691L399.719 331.819L400.002 332.023C400.505 331.788 401.278 330.836 401.705 330.413L406.197 325.8C405.673 324.693 406.08 323.661 406.259 322.465L406.842 320.108C406.313 320.679 406.508 320.406 406.104 321.102L405.735 321.75C404.762 323.427 404.774 322.519 403.125 322.948L402.663 322.312C402.647 320.365 402.568 318.768 403.537 317.004L404.085 315.984L404.339 315.469C405.008 314.132 405.423 312.3 406.688 311.441C407.214 311.341 407.676 311.236 408.188 311.066L408.278 305.523L408.078 307.785C405.382 307.142 402.781 307.311 400.132 306.291L399.82 305.455L398.588 305.248Z"/>
	<defs>
		<linearGradient id="gradient_8" gradientUnits="userSpaceOnUse" x1="394.67999" y1="318.14801" x2="396.05701" y2="318.561">
			<stop offset="0" stop-color="#EFECEA" stop-opacity="0.14509805"/>
			<stop offset="1" stop-color="#EDE8E5" stop-opacity="0.18431373"/>
		</linearGradient>
	</defs>
	<path fill="url(#gradient_8)" transform="scale(0.666667 0.666667)" d="M398.588 305.248L399.82 305.455L400.132 306.291C402.781 307.311 405.382 307.142 408.078 307.785L408.278 305.523L408.188 311.066C407.676 311.236 407.214 311.341 406.688 311.441C405.423 312.3 405.008 314.132 404.339 315.469L404.085 315.984L403.537 317.004C402.568 318.768 402.647 320.365 402.663 322.312L403.125 322.948C404.774 322.519 404.762 323.427 405.735 321.75L406.104 321.102C406.508 320.406 406.313 320.679 406.842 320.108L406.259 322.465C406.08 323.661 405.673 324.693 406.197 325.8L401.705 330.413C401.278 330.836 400.505 331.788 400.002 332.023L399.719 331.819L399 331.691L398.923 331.406L398.712 331.11C398.147 330.061 398.352 327.612 398.682 326.468C399.114 324.965 399.428 324.447 399.06 322.883L398.539 322.95L397.592 323.35C396.801 323.495 396.468 323.263 395.684 323.676C394.966 324.054 394.653 323.909 393.844 323.862C393.714 323.018 393.46 322.928 392.906 322.311C392.297 322.91 392.417 322.93 391.5 323.105C390.851 322.713 391.219 322.848 390.375 322.757C389.257 324.153 389.173 326.073 388.219 327.672C388.022 326.161 388.544 324.829 388.969 323.344L389.25 322.688C390.176 320.378 391.97 319.268 391.781 316.594C390.655 318.06 389.77 319.748 388.868 321.358L388.275 321.22C389.209 318.439 391.28 315.798 393.011 313.457L396.102 309.657C397.076 308.688 397.864 307.761 398.602 306.599C398.939 306.067 398.719 305.838 398.588 305.248ZM398.588 305.248C398.719 305.838 398.939 306.067 398.602 306.599C397.864 307.761 397.076 308.688 396.102 309.657L393.011 313.457L393.338 313.71C393.765 314.063 393.967 314.399 394.309 314.812C394.586 315.148 394.598 315.015 395.161 315.082C394.641 315.73 394.286 316.311 393.934 317.062L394.686 318.281L394.875 317.25L395.623 316.406L395.811 315.752L396.258 315.516L396.559 316.688C396.722 317.108 397.031 317.578 397.229 318L397.727 318L398.25 317.445C398.687 318.667 397.874 318.872 397.691 320.25L398.066 320.25C398.446 319.506 398.757 318.886 398.921 318.059L399.002 317.627C399.451 317.208 399.773 316.856 400.11 316.336C400.503 315.73 400.95 314.746 401.625 314.438C402.788 313.907 404.646 313.013 405.28 311.892C405.84 310.901 406.591 310.218 407.404 309.442C407.995 308.877 407.915 308.565 408.078 307.785C405.382 307.142 402.781 307.311 400.132 306.291L399.82 305.455L398.588 305.248ZM399.06 322.883C399.428 324.447 399.114 324.965 398.682 326.468C398.352 327.612 398.147 330.061 398.712 331.11L398.923 331.406L399 331.691L399.719 331.819L400.002 332.023C400.505 331.788 401.278 330.836 401.705 330.413L406.197 325.8C405.673 324.693 406.08 323.661 406.259 322.465C405.54 323.784 404.95 324.488 403.688 325.309C402.494 325.145 402.369 324.983 401.441 324.188L401.438 316.691C401.037 317.105 400.801 317.376 400.612 317.935C400.1 319.456 399.754 320.7 399.626 322.322L399.593 322.794L399.37 322.342L399.06 322.883Z"/>
	<path fill="#D7CDC4" fill-opacity="0.32941177" transform="scale(0.666667 0.666667)" d="M399.06 322.883L399.37 322.342L399.593 322.794L399.626 322.322C399.754 320.7 400.1 319.456 400.612 317.935C400.801 317.376 401.037 317.105 401.438 316.691L401.441 324.188C402.369 324.983 402.494 325.145 403.688 325.309C404.95 324.488 405.54 323.784 406.259 322.465C406.08 323.661 405.673 324.693 406.197 325.8L401.705 330.413C401.278 330.836 400.505 331.788 400.002 332.023L399.719 331.819L399 331.691L398.923 331.406L398.712 331.11C398.147 330.061 398.352 327.612 398.682 326.468C399.114 324.965 399.428 324.447 399.06 322.883Z"/>
	<defs>
		<linearGradient id="gradient_9" gradientUnits="userSpaceOnUse" x1="395.14899" y1="312.716" x2="401.27301" y2="314.98001">
			<stop offset="0" stop-color="#F2F0EE" stop-opacity="0.14117648"/>
			<stop offset="1" stop-color="#E7DFDC" stop-opacity="0.27058825"/>
		</linearGradient>
	</defs>
	<path fill="url(#gradient_9)" transform="scale(0.666667 0.666667)" d="M398.588 305.248L399.82 305.455L400.132 306.291C402.781 307.311 405.382 307.142 408.078 307.785C407.915 308.565 407.995 308.877 407.404 309.442C406.591 310.218 405.84 310.901 405.28 311.892C404.646 313.013 402.788 313.907 401.625 314.438C400.95 314.746 400.503 315.73 400.11 316.336C399.773 316.856 399.451 317.208 399.002 317.627L398.921 318.059C398.757 318.886 398.446 319.506 398.066 320.25L397.691 320.25C397.874 318.872 398.687 318.667 398.25 317.445L397.727 318L397.229 318C397.031 317.578 396.722 317.108 396.559 316.688L396.258 315.516L395.811 315.752L395.623 316.406L394.875 317.25L394.686 318.281L393.934 317.062C394.286 316.311 394.641 315.73 395.161 315.082C394.598 315.015 394.586 315.148 394.309 314.812C393.967 314.399 393.765 314.063 393.338 313.71L393.011 313.457L396.102 309.657C397.076 308.688 397.864 307.761 398.602 306.599C398.939 306.067 398.719 305.838 398.588 305.248ZM396.102 309.657L393.011 313.457L393.338 313.71C393.765 314.063 393.967 314.399 394.309 314.812C394.586 315.148 394.598 315.015 395.161 315.082C395.497 314.438 395.798 313.891 395.978 313.181L396.067 312.75C397.12 312.007 397.581 311.595 397.898 310.312L396.102 309.657Z"/>
	<defs>
		<linearGradient id="gradient_10" gradientUnits="userSpaceOnUse" x1="395.51001" y1="310.75" x2="397.02802" y2="311.20099">
			<stop offset="0" stop-color="#F3F1EF" stop-opacity="0.1254902"/>
			<stop offset="1" stop-color="#F1EDEB" stop-opacity="0.15686275"/>
		</linearGradient>
	</defs>
	<path fill="url(#gradient_10)" transform="scale(0.666667 0.666667)" d="M396.102 309.657L397.898 310.312C397.581 311.595 397.12 312.007 396.067 312.75L395.978 313.181C395.798 313.891 395.497 314.438 395.161 315.082C394.598 315.015 394.586 315.148 394.309 314.812C393.967 314.399 393.765 314.063 393.338 313.71L393.011 313.457L396.102 309.657Z"/>
	<path fill="#D8C9C0" fill-opacity="0.73725492" transform="scale(0.666667 0.666667)" d="M362.675 308.731C362.244 308.431 361.764 307.276 361.496 306.802C360.387 304.839 358.712 302.295 358.251 300.075C357.683 297.334 360.226 295.574 361.481 293.419C361.97 292.579 362.268 291.868 363.148 291.366C364.086 290.831 365.182 291.538 366.188 291.849L367.287 291.188C368.108 292.223 368.942 293.192 369.501 294.397L379.312 308.408C380.136 308.26 379.714 308.391 380.564 307.966L381.146 308.619L381.482 308.591C381.84 309.169 382.077 309.815 382.691 310.125C383.199 312.213 383.119 313.939 382.299 315.946L381.386 316.279C383.038 319.405 382.992 321.97 383.013 325.433C383.264 327.964 383.307 330.474 383.354 333.013C383.377 334.218 383.197 335.703 383.832 336.751L384.269 336.71C383.909 342.015 384.183 347.627 384.882 352.897L384.342 353.872C383.225 355.026 382.81 356.156 382.007 357.493C381.608 358.157 381.517 358.955 381.375 359.707L380.525 344.814L380.2 342.359C380.37 340.748 379.788 339.668 379.066 338.293C377.175 332.949 374.213 328.272 371.374 323.402C368.06 318.931 365.321 313.612 362.675 308.731ZM362.675 308.731C365.321 313.612 368.06 318.931 371.374 323.402C371.744 322.231 371.862 321.378 371.828 320.149L371.814 319.766C372.562 319.613 372.231 319.769 372.813 319.312C372.04 316.606 370.141 313.463 368.111 311.484C367.479 310.868 366.946 310.326 366.437 309.601C365.95 308.907 365.477 308.353 364.875 307.755C363.877 307.882 363.466 308.115 362.675 308.731ZM378.721 310.608C379.639 310.997 379.566 311.353 379.927 312.256L381.386 316.279L382.299 315.946C383.119 313.939 383.199 312.213 382.691 310.125C382.077 309.815 381.84 309.169 381.482 308.591L381.146 308.619L380.564 307.966C379.714 308.391 380.136 308.26 379.312 308.408L369.501 294.397L368.852 295.319L369.177 295.878C369.465 296.383 369.67 296.868 369.878 297.409C370.363 298.673 371.192 299.553 372.143 300.504C373.374 301.734 371.861 300.119 372.752 301.483C373.263 302.265 374.344 303.048 374.994 303.769C376.374 305.303 377.395 307.77 377.812 309.779L378.721 310.608ZM378.721 310.608C379.43 315.394 379.807 319.95 379.972 324.788L380.586 326.438L381.188 326.607L381.707 326.247L383.013 325.433C382.992 321.97 383.038 319.405 381.386 316.279L379.927 312.256C379.566 311.353 379.639 310.997 378.721 310.608Z"/>
	<path fill="#975F41" fill-opacity="0.88627452" transform="scale(0.666667 0.666667)" d="M378.721 310.608C379.639 310.997 379.566 311.353 379.927 312.256L381.386 316.279C383.038 319.405 382.992 321.97 383.013 325.433L381.707 326.247L381.188 326.607L380.586 326.438L379.972 324.788C379.807 319.95 379.43 315.394 378.721 310.608Z"/>
	<path fill="#D5BDB0" fill-opacity="0.97647059" transform="scale(0.666667 0.666667)" d="M378.721 310.608L377.812 309.779C377.395 307.77 376.374 305.303 374.994 303.769C374.344 303.048 373.263 302.265 372.752 301.483C371.861 300.119 373.374 301.734 372.143 300.504C371.192 299.553 370.363 298.673 369.878 297.409C369.67 296.868 369.465 296.383 369.177 295.878L368.852 295.319L369.501 294.397L379.312 308.408C380.136 308.26 379.714 308.391 380.564 307.966L381.146 308.619L381.482 308.591C381.84 309.169 382.077 309.815 382.691 310.125C383.199 312.213 383.119 313.939 382.299 315.946L381.386 316.279L379.927 312.256C379.566 311.353 379.639 310.997 378.721 310.608Z"/>
	<path fill="#D7CDC4" fill-opacity="0.81960785" transform="scale(0.666667 0.666667)" d="M362.675 308.731C363.466 308.115 363.877 307.882 364.875 307.755C365.477 308.353 365.95 308.907 366.437 309.601C366.946 310.326 367.479 310.868 368.111 311.484C370.141 313.463 372.04 316.606 372.813 319.312C372.231 319.769 372.562 319.613 371.814 319.766L371.828 320.149C371.862 321.378 371.744 322.231 371.374 323.402C368.06 318.931 365.321 313.612 362.675 308.731Z"/>
	<path fill="#9E6141" transform="scale(0.666667 0.666667)" d="M379.972 324.788L380.586 326.438L381.188 326.607L381.707 326.247L383.013 325.433C383.264 327.964 383.307 330.474 383.354 333.013C383.377 334.218 383.197 335.703 383.832 336.751L384.269 336.71C383.909 342.015 384.183 347.627 384.882 352.897L384.342 353.872C383.225 355.026 382.81 356.156 382.007 357.493C381.608 358.157 381.517 358.955 381.375 359.707L380.525 344.814L379.972 324.788Z"/>
	<path fill="#3B231B" transform="scale(0.666667 0.666667)" d="M224.18 257.002C224.677 256.898 228.185 252.751 228.905 252.021C232.197 248.686 235.465 245.1 239.027 242.061C277.842 208.944 332.859 196.749 382.772 196.442L383.091 199.592C380.324 203.891 377.664 208.161 374.57 212.243C370.078 218.172 365.166 223.826 361.179 230.129C355.416 239.241 351.263 249.46 349.399 260.086C348 268.066 347.901 276.526 349.594 284.47C350.645 289.4 352.144 294.239 354.528 298.696C350.315 295.174 346.801 291.117 342.376 287.744C327.635 276.506 308.734 271.102 290.377 271.089C280.761 271.082 271.867 271.831 262.324 269.868C269.464 287.172 276.949 303.913 288.257 318.984C292.712 324.921 297.705 330.824 303.537 335.475C308.774 339.652 314.707 342.916 320.878 345.488C326.144 347.682 331.623 349.597 336.673 352.26C346.146 357.256 353.293 364.993 360.464 372.749L359.773 372.96L359.475 373.149C359.132 373.321 342.751 373.162 341.806 372.799C341.209 372.57 341.582 372.65 340.723 372.627C340.213 372.613 339.794 372.601 339.28 372.525L334.875 371.83C330.671 371.128 326.217 369.799 322.312 368.109L320.998 367.535C316.75 365.891 312.034 363.795 308.215 361.313L303.926 358.717L297.188 354.191C296.65 353.856 296.217 353.607 295.722 353.199L293.318 351.329L292.496 350.631L287.895 347.077L286.125 345.586C285.208 344.48 283.077 342.666 281.812 341.855C279.064 340.09 276.461 336.872 274.103 334.517C266.811 327.235 259.274 320.018 253.312 311.441C252.62 310.445 251.819 309.588 251.123 308.61L248.222 304.877L242.88 298.122C240.901 295.384 238.242 292.769 236.49 289.938C236.068 289.257 236.394 289.686 235.774 288.938L228.938 279.941C228.043 278.625 226.821 277.685 225.921 276.395C224.93 274.976 223.532 273.855 222.562 272.441C221.759 271.27 220.878 270.107 219.592 269.406C218.825 268.987 219.188 269.238 218.527 268.77C218.056 268.436 217.798 268.518 217.23 268.486L216.482 268.326C218.613 264.289 221.422 260.624 224.18 257.002Z"/>
</svg>
